<svg width="50" height="50" viewBox="0 0 50 50" fill="none" xmlns="http://www.w3.org/2000/svg">
<path d="M37.2788 49.1453C44.0106 49.1453 49.4677 43.6882 49.4677 36.9564C49.4677 30.2246 44.0106 24.7675 37.2788 24.7675C30.547 24.7675 25.0898 30.2246 25.0898 36.9564C25.0898 43.6882 30.547 49.1453 37.2788 49.1453Z" fill="#EDFF81"/>
<path d="M40.9353 17.454C45.6476 17.454 49.4676 13.634 49.4676 8.92179C49.4676 4.20955 45.6476 0.389526 40.9353 0.389526C36.2231 0.389526 32.4031 4.20955 32.4031 8.92179C32.4031 13.634 36.2231 17.454 40.9353 17.454Z" fill="white"/>
<path d="M9.31741 49.0722C14.0297 49.0722 17.8497 45.2522 17.8497 40.5399C17.8497 35.8277 14.0297 32.0077 9.31741 32.0077C4.60518 32.0077 0.785156 35.8277 0.785156 40.5399C0.785156 45.2522 4.60518 49.0722 9.31741 49.0722Z" fill="white"/>
<path d="M12.9009 24.7674C19.6326 24.7674 25.0898 19.3102 25.0898 12.5785C25.0898 5.8467 19.6326 0.389526 12.9009 0.389526C6.16909 0.389526 0.711914 5.8467 0.711914 12.5785C0.711914 19.3102 6.16909 24.7674 12.9009 24.7674Z" fill="#EDFF81"/>
</svg>
